/* XPM */
static char *stock_revert.png[] = {
/* columns rows colors chars-per-pixel */
"24 24 158 2",
"   c black",
".  c #0B0B06",
"X  c #0C0D0F",
"o  c #12100A",
"O  c #221E12",
"+  c #2A2516",
"@  c #2B2719",
"#  c #302C19",
"$  c #28323E",
"%  c #363220",
"&  c #383422",
"*  c #313131",
"=  c #33383C",
"-  c #363C40",
";  c #313E49",
":  c #383E43",
">  c #34464E",
",  c #3C454C",
"<  c #3F484C",
"1  c #364853",
"2  c #364A59",
"3  c #3A515D",
"4  c #3B5360",
"5  c #5C4003",
"6  c #765204",
"7  c #40474D",
"8  c #4E4A43",
"9  c #4C4C4C",
"0  c #444D54",
"q  c #475158",
"w  c #4B545C",
"e  c #544340",
"r  c #514E46",
"t  c gray34",
"y  c #5B5B5B",
"u  c #455C6D",
"i  c #4F5B62",
"p  c #4E5E6A",
"a  c #465E70",
"s  c #515B63",
"d  c #496173",
"f  c #4C6579",
"g  c #4E687C",
"h  c #556169",
"j  c #59646D",
"k  c #5C6973",
"l  c #5B6E7C",
"z  c #715959",
"x  c #67655E",
"c  c #646464",
"v  c #626169",
"b  c #666A6D",
"n  c #6B6B6B",
"m  c #686670",
"M  c #6F777E",
"N  c #737373",
"B  c #4E6E82",
"V  c #526C80",
"C  c #557086",
"Z  c #54738C",
"A  c #648092",
"S  c #65859C",
"D  c #6E899E",
"F  c #778999",
"G  c #798D99",
"H  c #6B8DA5",
"J  c #6F90AC",
"K  c #718CA2",
"L  c #7293AD",
"P  c #7C96AD",
"I  c #7897B3",
"U  c #7A9BB1",
"Y  c #84483F",
"T  c #8D6A19",
"R  c #986B08",
"E  c #9E7009",
"W  c #9D7828",
"Q  c #B07D0A",
"!  c #A37C25",
"~  c #A27D31",
"^  c #96534E",
"/  c #827544",
"(  c #BA6C6A",
")  c #C36559",
"_  c #C06961",
"`  c #C5766C",
"'  c #CE7365",
"]  c #CA7B6E",
"[  c #CC7C73",
"{  c #D17B6C",
"}  c #96864F",
"|  c #AE9141",
" . c #A49357",
".. c #AE9D5D",
"X. c #D1940C",
"o. c #D29815",
"O. c #D7A42A",
"+. c #D9AA35",
"@. c #DEB446",
"#. c #CBB66C",
"$. c #E1CA78",
"%. c gray51",
"&. c #97938C",
"*. c #9B968E",
"=. c #909090",
"-. c #819EB6",
";. c #84A1B6",
":. c #85A1B8",
">. c #89A5BB",
",. c #A4A099",
"<. c #B8B3AB",
"1. c #B7B7B7",
"2. c #B8B5B0",
"3. c gray74",
"4. c #A4B9CB",
"5. c #A1BED6",
"6. c #9BC3D8",
"7. c #A2C2DB",
"8. c #AAC4D7",
"9. c #AAC6DD",
"0. c #B3CADC",
"q. c #BACCDC",
"w. c #ABC4E2",
"e. c #AACAE2",
"r. c #B1C6E0",
"t. c #B3CDE3",
"y. c #B0D1E4",
"u. c #C0BCB5",
"i. c #C2BFB9",
"p. c #E2B7AF",
"a. c #E9B7AD",
"s. c #E9B8AF",
"d. c #E5BFBA",
"f. c #E9BAB2",
"g. c #C7C4BE",
"h. c #EED680",
"j. c #EED78E",
"k. c #EEE0A5",
"l. c #EFE5BD",
"z. c #C5C5C5",
"x. c #C9C6C0",
"c. c #CCC9C3",
"v. c #CDCDCB",
"b. c #D1CEC9",
"n. c #D6D4D1",
"m. c #D9D7D4",
"M. c #DBD9D5",
"N. c #DDDCDB",
"B. c #E0DEDA",
"V. c #EEE6C1",
"C. c #E1E0DC",
"Z. c #E5E4E1",
"A. c #E9E8E6",
"S. c #EAEAE9",
"D. c #F0EFEC",
"F. c gray94",
"G. c #FDFDFD",
"H. c None",
/* pixels */
"H.H.H.H.#   H.H.H.H.H.H.H.H.H.H.H.H.H.H.H.H.H.H.",
"H.H.  % l.            H.H.H.H.H.H.H.H.H.H.H.H.H.",
"H.$.& V.h.. O + o                               ",
"H.% V.h.$.h.h.#.}   e p.f.a.s.s.f.f.d.N t.5.    ",
"# V.k.k.k.k.k.j.h...  Y ] { ' ' ' ) ) v :.C     ",
"# ~ o.o.o.o.o.O.@.h. .  ^ ` _ [ ) ) ( m -.C     ",
"H.# W X.X.    6 E +.#.  %.F.G.G.G.G.G.N :.V     ",
"H.  @ ! X.  c   5 Q h.  n Z.G.G.G.G.G.N :.g     ",
"H.    & T   y 9   R $.. y 1.c.v.v.v.3.N >.d     ",
"H.    8.O X =.C.  | / . M.A.G.G.G.G.G.N >.a     ",
"H.H.  r.Z * C.S.  $.  z N.S.G.G.G.G.G.N >.u     ",
"H.H.  e.U N 3.  #./   C 1.z.v.v.v.v.z.N :.h     ",
"H.H.  y.:.z   ..}   b M.S.G.G.G.G.G.G.N :.s     ",
"H.H.  e.U G N     * 9 n b n N N N N n M :.3     ",
"H.H.  e.L -.U P K F K P L :.:.:.:.:.>.:.>.2     ",
"H.H.  w.L J L , , i k k k j j h s 4 , I 4.1     ",
"H.H.  e.J H w &.N.C.A.S.A.N.b.g.*.h f Z 9.>     ",
"H.H.  e.H H 7 m.Z.x r r m.g.u.<.b.0 g B 0.>     ",
"H.H.  e.H K 7 C.D.x r r c.g.u.g.M.w g C q.;     ",
"H.H.  9.H F : B.A.r 8 8 g.u.g.C.A.q g g 7.:     ",
"H.H.  F D S = n.n.8 8 8 u.b.A.S.Z.0 d f 7.:     ",
"H.H.  X p l i ,.u.<.c.c.m.C.A.M.<.< d d 6.=     ",
"H.H.                                    $       ",
"H.H.                                            "
};
