/* XPM */
static char *stock_exit.png[] = {
/* columns rows colors chars-per-pixel */
"24 24 143 2",
"   c black",
".  c #020402",
"X  c #040504",
"o  c #040604",
"O  c #050705",
"+  c #080A07",
"@  c #0A0C09",
"#  c #0A0D09",
"$  c #0B0E0A",
"%  c #0C0F0B",
"&  c #0C0C0C",
"*  c #0F130D",
"=  c #10140E",
"-  c #10150F",
";  c #11150F",
":  c #141912",
">  c #161C14",
",  c #171D15",
"<  c #181E16",
"1  c #1E1E1D",
"2  c #182012",
"3  c #192017",
"4  c #1B2319",
"5  c #1C2319",
"6  c #1D241A",
"7  c #1D261B",
"8  c #1E261B",
"9  c #1E261C",
"0  c #20201F",
"q  c #212A1E",
"w  c #222B1F",
"e  c #232C1F",
"r  c gray15",
"t  c #232C20",
"y  c #242E21",
"u  c #253022",
"i  c #273224",
"p  c #283325",
"a  c #293426",
"s  c #2A3526",
"d  c #2C3728",
"f  c #2C3828",
"g  c #2D3929",
"h  c #2E3A2A",
"j  c #32392F",
"k  c #303C2B",
"l  c #303D2C",
"z  c #303E2D",
"x  c #313E2D",
"c  c #323830",
"v  c #333C30",
"b  c #33402E",
"n  c #374532",
"m  c #3B4736",
"M  c #394834",
"N  c #394934",
"B  c #3B4A36",
"V  c #3D4E38",
"C  c #3F503A",
"Z  c #4F0000",
"A  c #500000",
"S  c #580000",
"D  c #6A0000",
"F  c #720000",
"G  c #701616",
"H  c #40503A",
"J  c #42543C",
"K  c #43553D",
"L  c #43553E",
"P  c #414140",
"I  c #465840",
"U  c #475A41",
"Y  c #485B42",
"T  c #4A5E44",
"R  c #4B5E44",
"E  c #565655",
"W  c #5D5D5C",
"Q  c #4E6347",
"!  c #4F6348",
"~  c #506549",
"^  c #51674A",
"/  c #53694C",
"(  c #566C4E",
")  c #576D4F",
"_  c #586F50",
"`  c #5B7353",
"'  c #5C7454",
"]  c #7C4343",
"[  c #61615E",
"{  c #636362",
"}  c #727370",
"|  c #767674",
" . c #777774",
".. c #777776",
"X. c #7A7D78",
"o. c #608148",
"O. c #990000",
"+. c #DF421E",
"@. c #E67056",
"#. c #E87B62",
"$. c #E97E66",
"%. c #E9836C",
"&. c #EB8D77",
"*. c #8B8B8A",
"=. c #8F8F8D",
"-. c #92928F",
";. c #91968F",
":. c #9D9D9B",
">. c #A6A6A5",
",. c #A8A8A4",
"<. c #A8A8A5",
"1. c #ACACAB",
"2. c #AEAEAB",
"3. c #AEAEAC",
"4. c #B5B5B3",
"5. c #B7B7B4",
"6. c #B9B9B7",
"7. c #BABAB7",
"8. c #BDBDBB",
"9. c #BDBDBC",
"0. c #BFBFBD",
"q. c #CD8484",
"w. c #EFA392",
"e. c #F0B0A1",
"r. c #C4C4C1",
"t. c #C5C5C2",
"y. c #C5C5C3",
"u. c #C6C6C3",
"i. c #CBCBC8",
"p. c #CDCDCB",
"a. c #CFCFCD",
"s. c #D0D0CE",
"d. c #D5D5D3",
"f. c #D6D6D4",
"g. c #DADAD7",
"h. c #DADAD8",
"j. c #DBDBD8",
"k. c #DEDEDC",
"l. c #E5E5E3",
"z. c #E6E6E4",
"x. c #F0F0EE",
"c. c #F1F1EF",
"v. c None",
/* pixels */
"v.v.v.v.v.v.v.v.v.v.v.v.v.v.v.v.v.v.v.v.v.v.v.v.",
"v.v.v.v.v.v.v.                                v.",
"v.v.v.v.v.v.v.  f.9.,.-.} [ [ [ 0             v.",
"v.v.v.v.v.  v.  c.z.g.a.r.,. . .1             v.",
"v.v.v.v.v.      c.z.j.a.r.6.3.=.r             v.",
"v.v.v.v.v.      c.z.j.a.r.6.6.6.H             v.",
"v.v.v.v.v.  %.  k.z.j.a.r.6.6.6.{ X O O O O   v.",
"            #.@.  d.j.s.r.6.6.6.{ + @ + % %   v.",
"  e.#.#.#.#.&.+.$.  i.s.r.6.6.6.{ % * - - -   v.",
"  w.+.+.+.+.+.+.+.@.  9.r.6.W 6.{ - : > > <   v.",
"  w.+.+.+.+.+.+.+.+.@.  6.6.W & { : 3 4 6 8   v.",
"  q.O.O.O.O.O.O.O.O.O.G   ,.& 6.{ < 8 q q q   v.",
"  q.O.O.O.O.O.O.O.O.Z   3.6.6.6.{ 9 y i a a   v.",
"  q.O.O.O.O.O.O.O.S   5.r.6.6.6.{ q s h h h   v.",
"  ] D D D D F O.S   9.s.r.6.6.6.{ t s k x b   v.",
"            F S   y.j.s.r.6.6.6.{ 9 i h n B   v.",
"o.o.o.o.o.  A   i.z.j.s.y.6.6.6.{ 4 y x B V   v.",
"o.o.o.o.o.      c.z.j.s.r.6.3.:.E q d n C K   v.",
"o.o.o.o.o.      c.z.j.s.6.:. .c t x B K U T   v.",
"o.o.o.o.o.. 2   c.z.r.3.=.j d n V U T ! ^ ^   v.",
"v.v.v.v.v.v.v.  j.9.X.v n H U ! / ( ( ) ( (   v.",
"v.v.v.v.v.v.v.  ;.m K T ^ _ ` ' ' ' ' ' ' '   v.",
"v.v.v.v.v.v.v.                                v.",
"v.v.v.v.v.v.v.v.v.v.v.v.v.v.v.v.v.v.v.v.v.v.v.v."
};
