/* XPM */
static char *stock_home.png[] = {
/* columns rows colors chars-per-pixel */
"24 24 101 2",
"   c black",
".  c gray8",
"X  c gray9",
"o  c #181818",
"O  c #191919",
"+  c gray11",
"@  c #1D1D1D",
"#  c gray12",
"$  c #3D1208",
"%  c #371D16",
"&  c #202020",
"*  c gray13",
"=  c #222222",
"-  c #232323",
";  c gray14",
":  c gray15",
">  c #2A2A2A",
",  c #2C2C2C",
"<  c #303D2A",
"1  c #313131",
"2  c gray20",
"3  c #343434",
"4  c gray22",
"5  c #3F4F37",
"6  c #40503A",
"7  c #44563E",
"8  c #464646",
"9  c gray28",
"0  c gray31",
"q  c #505050",
"w  c #555555",
"e  c #585858",
"r  c #5D5D5D",
"t  c #4C6042",
"y  c #5D7555",
"u  c #64785E",
"i  c gray38",
"p  c #626262",
"a  c gray40",
"s  c #676767",
"d  c #6C6C6C",
"f  c #6D6D6D",
"g  c gray43",
"h  c #657460",
"j  c #717171",
"k  c gray47",
"l  c #7C7C7C",
"z  c gray49",
"x  c #7E7E7E",
"c  c #6E8467",
"v  c #7F8F7A",
"b  c #924B37",
"n  c #924E3D",
"m  c #934F3E",
"M  c #944D3A",
"N  c #974F3C",
"B  c #9B5343",
"V  c #A05443",
"C  c #CF543C",
"Z  c #D15137",
"A  c #D0533A",
"S  c #C95C49",
"D  c #C1665A",
"F  c #E17C66",
"G  c #82947C",
"H  c #DD806D",
"J  c #838383",
"K  c gray52",
"L  c #868686",
"P  c #888888",
"I  c #8D8D8D",
"U  c #879981",
"Y  c #8A9B85",
"T  c #909090",
"R  c gray57",
"E  c gray58",
"W  c #9A9A9A",
"Q  c #A0A0A0",
"!  c gray63",
"~  c gray65",
"^  c #A9A9A9",
"/  c #ACACAC",
"(  c #AEAEAE",
")  c #B2B2B2",
"_  c gray73",
"`  c #BCBCBC",
"'  c gray75",
"]  c #E99E8F",
"[  c #ECA291",
"{  c #ECA292",
"}  c #ECA696",
"|  c gray77",
" . c gray78",
".. c #CACACA",
"X. c #CECECE",
"o. c gray82",
"O. c #D2D2D2",
"+. c gray92",
"@. c #EEEEEE",
"#. c gray100",
"$. c None",
/* pixels */
"$.$.$.$.$.$.$.$.$.$.$.$.$.$.$.$.$.$.$.$.$.$.$.$.",
"$.$.$.$.$.$.$.$.$.$.$.    $.$.$.$.$.$.$.$.$.$.$.",
"$.$.$.$.$.        $.  - ,   $.$.$.$.$.$.$.$.$.$.",
"$.$.$.$.$.  D b     > 2 3 ;   $.$.$.$.$.$.$.$.$.",
"$.$.$.$.$.  M V   . 9 w I 4 O   $.$.$.$.$.$.$.$.",
"$.$.$.$.$.  N   - 2 ! s / ` e .   $.$.$.$.$.$.$.",
"$.$.$.$.$.    + 9 s _ x O.` #.0 ;   $.$.$.$.$.$.",
"$.$.$.$.$.  - q ) I O.W #.` #.` K .   $.$.$.$.$.",
"$.$.$.$.  + g ~ O.W #._ #._ #.` #.p O   $.$.$.$.",
"$.$.$.  - |  ...#./ #._ #._ #.` #.O.x +   $.$.$.",
"$.$.  ; / ` ` | | ` ` | `           I f ;   $.$.",
"$.        @.#.#.#.#.#.#.#.  E  .@.  x         $.",
"$.$.$.$.  O.#.          #.  ` #.#.  f   $.$.$.$.",
"$.$.$.$.  ^ #.  { F B   #.  X.#.#.  p   $.$.$.$.",
"$.$.$.$.  K #.  { C n   #.          f   $.$.$.$.",
"$.$.$.$.    #.  { C %    .E r r K k     $.$.$.$.",
"$.$.$.$.    @.  } S N   #.#.#.#.#._     $.$.$.$.",
"$.$.$.$.    _   F D n   ` ` ` ` ` P     $.$.$.$.",
"$.$.$.$.$.  ! $ Z D B   #.#.#.#.#.I   $.$.$.$.$.",
"                                                ",
"$.$.    + U G Y U c y t 5 <   G v u t h 6     $.",
"$.$.                                      $.$.$.",
"$.                                    $.$.$.$.$.",
"$.$.$.$.$.$.$.$.$.$.$.$.$.$.$.$.$.$.$.$.$.$.$.$."
};
