/* XPM */
static char *stock_convert.png[] = {
/* columns rows colors chars-per-pixel */
"24 24 217 2",
"   c black",
".  c #010100",
"X  c #030201",
"o  c #030301",
"O  c #040402",
"+  c #060503",
"@  c #070604",
"#  c #080703",
"$  c #080704",
"%  c #090805",
"&  c #0B0905",
"*  c #0B0B06",
"=  c #0C0A06",
"-  c #0D0B06",
";  c gray4",
":  c #0E0E0E",
">  c #100E08",
",  c #100E09",
"<  c #190000",
"1  c #1C0000",
"2  c #1F0000",
"3  c #1A0A07",
"4  c #1C0D0A",
"5  c #1E0F0F",
"6  c #111100",
"7  c #151500",
"8  c #121009",
"9  c #131009",
"0  c #14140A",
"q  c #16160B",
"w  c #1D1507",
"e  c #1D1309",
"r  c #1C170B",
"t  c #1D170B",
"y  c #1F150A",
"u  c #1D150E",
"i  c #191908",
"p  c #1A1A08",
"a  c #1B1B09",
"s  c #18180C",
"d  c #19190C",
"f  c #1A1A0D",
"g  c #1B1B0D",
"h  c #1F1A0A",
"j  c #1C190F",
"k  c #1E190C",
"l  c #1E190F",
"z  c #1E1A0D",
"x  c #1E1B0D",
"c  c #1F1A0D",
"v  c #1E1B0F",
"b  c #1F1A0F",
"n  c #1F1B0F",
"m  c #1C1C0B",
"M  c #1C1C0C",
"N  c #1C1C0E",
"B  c #1D1D0E",
"V  c #1F1C0C",
"C  c #1F1C0E",
"Z  c #1F1C0F",
"A  c #1E1E0F",
"S  c #111418",
"D  c #1D1A10",
"F  c #1E1B10",
"G  c #1F1B11",
"H  c #1F1B12",
"J  c #1C1C11",
"K  c #1E1C11",
"L  c #1F1C10",
"P  c #1F1C11",
"I  c #181818",
"U  c #181C21",
"Y  c #1E2B36",
"T  c #240000",
"R  c #21160B",
"E  c #201B0A",
"W  c #201A0D",
"Q  c #201C0E",
"!  c #201C0F",
"~  c #211C0F",
"^  c #211D0F",
"/  c #28130D",
"(  c #2B180F",
")  c #201A10",
"_  c #201B10",
"`  c #221B11",
"'  c #201C10",
"]  c #201C11",
"[  c #201D10",
"{  c #211C10",
"}  c #211C11",
"|  c #211E11",
" . c #221E11",
".. c #231F13",
"X. c #35170F",
"o. c #37160F",
"O. c #321D11",
"+. c #381D13",
"@. c #391D13",
"#. c #3B1C15",
"$. c #242012",
"%. c #2B2719",
"&. c #2F2C19",
"*. c #302C19",
"=. c #322F1E",
"-. c #3D351F",
";. c #202020",
":. c #252C33",
">. c #202F3B",
",. c #2B333B",
"<. c #2B343C",
"1. c #2C333C",
"2. c #353120",
"3. c #363220",
"4. c #303434",
"5. c #303536",
"6. c #313739",
"7. c #323739",
"8. c #263644",
"9. c #394149",
"0. c #38414C",
"q. c #3A434C",
"w. c #364A5D",
"e. c #3B4551",
"r. c #3E4954",
"t. c #3E4955",
"y. c #3F4A56",
"u. c #394E62",
"i. c #3F566C",
"p. c #470705",
"a. c #490504",
"s. c #431D12",
"d. c #461C13",
"f. c #520907",
"g. c #6F0E0B",
"h. c #6B110E",
"j. c #6B1813",
"k. c #6E1813",
"l. c #7F120E",
"z. c #574E2D",
"x. c #7F5B0A",
"c. c #735817",
"v. c #415B71",
"b. c #556573",
"n. c #5A6A79",
"m. c #4B6983",
"M. c #687A8B",
"N. c #821A16",
"B. c #8F1611",
"V. c #961712",
"C. c #941E19",
"Z. c #98231D",
"A. c #992C25",
"S. c #A62D26",
"D. c #AA3F3A",
"F. c #B8322A",
"G. c #BA352D",
"H. c #BB372E",
"J. c #B33430",
"K. c #B53732",
"L. c #BC3930",
"P. c #8A681F",
"I. c #976E15",
"U. c #826321",
"Y. c #916F25",
"T. c #937025",
"R. c #9C7E2B",
"E. c #A37819",
"W. c #AB7C12",
"Q. c #AD7C10",
"!. c #A97C1A",
"~. c #C03F35",
"^. c #C4463A",
"/. c #C5483C",
"(. c #C74B3F",
"). c #C14B43",
"_. c #C24D45",
"`. c #CD5446",
"'. c #CF5749",
"]. c #C05350",
"[. c #C25550",
"{. c #C35C57",
"}. c #C6635E",
"|. c #C7645F",
" X c #D46051",
".X c #CB6A63",
"XX c #CB6A64",
"oX c #D86E61",
"OX c #DC7B6D",
"+X c #DD7C6F",
"@X c #B68411",
"#X c #BC8710",
"$X c #AE9C5C",
"%X c #C58F13",
"&X c #D29815",
"*X c #DF8275",
"=X c #DF8477",
"-X c #C6A546",
";X c #DFB84F",
":X c #CBB771",
">X c #E3C05D",
",X c #E3C15E",
"<X c #E5C470",
"1X c #B3B1B0",
"2X c #9DB8D2",
"3X c #A5BDD1",
"4X c #B5CFE5",
"5X c #EED680",
"6X c #EED682",
"7X c #E6D498",
"8X c #EDC5BE",
"9X c #F0DCAA",
"0X c #EAE8E3",
"qX c #EBE9E5",
"wX c #EEECE9",
"eX c #EEECEB",
"rX c None",
/* pixels */
"rXrXrXrXrXrXrXrXrXrXrX            * rXrXrXrXrXrX",
"rXrXrXrXrXrXrXrXrX  ; 1XeX9X<X;XP.  , , f   rXrX",
"rXrXrXrXrXrXrXrX  ;.wX7X5X5X5X,X&XI.x.v x 5   rX",
"rXrXrXrXrX        qX:X      c.-X>X#XW.v ) !   rX",
"rXrXrXrXy.:.9.w   $X  ] ] ] & R.5X&XW.$.] ) T rX",
"rXrXrX  0.3X,.9.]   ] ] ] Z x -.5X&XE.] ^ ! 6   ",
"rXrXrXy.b.4Xi.,.4.^ ] v &       5X&X!.      ! f ",
"rXrX  y.2X4Xm.v.<.4.^ A ] 0X5X5X5X&X%X@XU.*.) v ",
"rXrXy.n.2X4Xm.m.v.:.7.m x 3.0X5X5X&X&XY.=.] ^ x ",
"rXe.y.2X2X4Xm.m.m.i.<.7.x v %.0X5X&XY.3.] ^ Z R ",
"rXy.M.2X2X4Xm.m.m.m.u.<.7.Z ) *.0XT.=.z.^ x d   ",
"rXS 2X2X2X4Xm.m.m.m.m.w.U v Z v *.*.] ] Z p   rX",
"rXo   2X2X4Xm.m.m.m.Y   * ) E Z ^ ! ! v u   rXrX",
"rXp $   2X4Xm.m.>.  & , ] ! 4     o     s.q   rX",
"rX  f #   4X8.  + , ] ! m #.  `.'.`._.L.  d.k 7 ",
"rXrX  f *   O 9 ] ^ Z m /   `. X+X X`.^.A.  ( k ",
"rXrXrX  f x ] ] Z k d 1   /.'.=X8X+X'.(._.k.+ x ",
"rXrXrXrX  e ! k q         ^.'. X=X X`./..Xk.  ] ",
"rXrXrXrXrX        rXrXT   L._.`.'.`.(.L.XXN.  ] ",
"rXrXrXrXrXrXrXrXrXrXrX2   G.^.^.(.^.^.F.[.h.  ] ",
"rXrXrXrXrXrXrXrXrXrXrX    Z.S./.H.H.F.{.K.p.* ] ",
"rXrXrXrXrXrXrXrXrXrXrX  3 I C.D.|.}.].K.f.  O.] ",
"rXrXrXrXrXrXrXrXrXrXrX  y o.: N.V.B.g.a.  o.] ^ ",
"rXrXrXrXrXrXrXrXrXrXrXrX1 J @.          @.] J J "
};
