/* XPM */
static char * new_xpm[] = {
"20 20 58 1",
" 	c None",
".	c #000000",
"+	c #FFFFFF",
"@	c #A8B2BB",
"#	c #A7B1BA",
"$	c #ACB6BF",
"%	c #A9B4BD",
"&	c #A7B2BB",
"*	c #A6B1BA",
"=	c #A5B0B9",
"-	c #AFBAC3",
";	c #ADB8C1",
">	c #ABB6BF",
",	c #ACB6BE",
"'	c #AAB4BC",
")	c #A8B2BA",
"!	c #A7B1B9",
"~	c #B4BEC6",
"{	c #B2BCC4",
"]	c #B0BAC2",
"^	c #ABB7BF",
"/	c #A8B3BB",
"(	c #A6B1B9",
"_	c #A5B0B8",
":	c #A4AFB7",
"<	c #B5C1C9",
"[	c #B3BFC7",
"}	c #B1BDC5",
"|	c #AFBAC2",
"1	c #ADB8C0",
"2	c #ABB6BE",
"3	c #AAB5BD",
"4	c #A9B4BC",
"5	c #B6C1C9",
"6	c #B4BFC7",
"7	c #B3BEC6",
"8	c #B2BDC5",
"9	c #B1BCC4",
"0	c #B8C3CB",
"a	c #75858F",
"b	c #AAB5BC",
"c	c #B4BFC6",
"d	c #AEB9C0",
"e	c #D1E2EC",
"f	c #A7B3BA",
"g	c #A6B2B9",
"h	c #A5B1B8",
"i	c #AFBBC2",
"j	c #ADB9C0",
"k	c #ABB7BE",
"l	c #A9B5BC",
"m	c #B6C2C9",
"n	c #B3BFC6",
"o	c #B1BDC4",
"p	c #B8C4CB",
"q	c #B5C2C9",
"r	c #CCCCCC",
"s	c #090909",
"rrrrrrrrrrrrrrrrrrrr",
"rrrrrrrrrrrrrrrrrrrr",
"rrrrsssssssssssss.rr",
"rrrse.+++++++++++.rr",
"rrsee.0pp0p00p01+.rr",
"rrs...5m5mq5<551+.rr",
"rrsaaac7n~[6n6[1+.rr",
"rrsa}89{o9}99}}1+.rr",
"rrsa|i|-|i]||ii1+.rr",
"rrsa1j11;j11j1d1+.rr",
"rrsak2k2>k$$,^k1+.rr",
"rrsal'%'bll33441+.rr",
"rrsa//&@f/f/@/)1+.rr",
"rrsag*g(((g#(g!1+.rr",
"rrsah=______h__1+.rr",
"rrsa:::::::::::1+.rr",
"rrsaaaaaaaaaaaaaa.rr",
"rrsssssssssssssss.rr",
"rrrrrrrrrrrrrrrrrrrr",
"rrrrrrrrrrrrrrrrrrrr"};
