/* XPM */
static char *stock_attach.png[] = {
/* columns rows colors chars-per-pixel */
"24 24 102 2",
"   c black",
".  c #0E0E0E",
"X  c #1B1B1B",
"o  c #1E1E1E",
"O  c gray13",
"+  c #222222",
"@  c #272727",
"#  c #2C2C2C",
"$  c #2F2F2F",
"%  c #323232",
"&  c gray20",
"*  c gray22",
"=  c #393939",
"-  c #3A3A3A",
";  c gray23",
":  c #3C3C3C",
">  c gray24",
",  c #3F3F3F",
"<  c #434343",
"1  c #444444",
"2  c #484848",
"3  c gray29",
"4  c #4B4B4B",
"5  c #4E4E4E",
"6  c gray31",
"7  c #515151",
"8  c gray34",
"9  c #585858",
"0  c #5B5B5B",
"q  c #5F5F5F",
"w  c #606060",
"e  c gray38",
"r  c gray39",
"t  c DimGray",
"y  c #6D6D6D",
"u  c gray44",
"i  c gray50",
"p  c #838383",
"a  c #888888",
"s  c gray54",
"d  c #8D8D8D",
"f  c #8E8E8E",
"g  c #959595",
"h  c gray62",
"j  c gray63",
"k  c #A5A5A5",
"l  c #A7A7A7",
"z  c gray68",
"x  c #AFAFAF",
"c  c #B1B1B1",
"v  c #B2B2B2",
"b  c gray72",
"n  c gray73",
"m  c #BBBBBB",
"M  c #BCBCBC",
"N  c gray",
"B  c gray75",
"V  c gray76",
"C  c #C3C3C3",
"Z  c #C5C5C5",
"A  c #C6C6C6",
"S  c gray78",
"D  c #CACACA",
"F  c #CDCDCD",
"G  c #CECECE",
"H  c gray82",
"J  c LightGray",
"K  c gray83",
"L  c #D5D5D5",
"P  c gray84",
"I  c #D7D7D7",
"U  c #D8D8D8",
"Y  c #DADADA",
"T  c gray86",
"R  c #DDDDDD",
"E  c gray87",
"W  c #DFDFDF",
"Q  c gray88",
"!  c #E1E1E1",
"~  c #E2E2E2",
"^  c gray89",
"/  c #E4E4E4",
"(  c gray90",
")  c #E6E6E6",
"_  c #E7E7E7",
"`  c gray91",
"'  c #EAEAEA",
"]  c #ECECEC",
"[  c gray94",
"{  c #F1F1F1",
"}  c gray95",
"|  c #F3F3F3",
" . c #F4F4F4",
".. c gray96",
"X. c #F6F6F6",
"o. c gray97",
"O. c #F8F8F8",
"+. c #F9F9F9",
"@. c gray98",
"#. c #FBFBFB",
"$. c gray100",
"%. c None",
/* pixels */
"%.%.%.%.%.%.%.%.%.%.%.%.%.%.%.%.%.%.%.%.%.%.%.%.",
"%.%.%.%.%.%.%.%.                %.%.%.%.%.%.%.%.",
"%.%.%.%.%.%.%.%.                8 >     %.%.%.%.",
"%.%.%.%.%.%.%.%.          & r n $.c ;     %.%.%.",
"%.%.%.%.%.%.%.%.    > 7 i n $.$.X.~ ;     %.%.%.",
"%.%.%.%.%.%.  1   y B ( T $.o.X.X.( 8     %.%.%.",
"%.%.%.  & 8 u F . _ T o.o.o.T ( X.X.h       %.%.",
"%.  # r c $.$.$.  T o.( E   ~ X.o.] ~ ;     %.%.",
"%.3 $.$.$.o.o.$.  n ~ ] o.  ( X.~ X.E r     %.%.",
"%.< ( o.o._ E ~   L o.o.o.  D T X.X.] k       %.",
"%.  c $.o.T o.o.  J o.E T   ~ X.] X.] ~ ;     %.",
"%.  5 $.o.X.o.o.  M L o.X.  ~ X.E ~ X.~ 5     %.",
"%.%.# ( $.X.L T   F T o.Z   B L _ ~ ] ] d ;     ",
"%.%.  f $.X.X.X.k   x B   a L X.X.] X.] E r     ",
"%.%.  3 $.X.] X.X.h     d T ] X.] X._ M g 3     ",
"%.%.%.+ ( $.X.T J Z x k T ] X.] D a q 8 &       ",
"%.%.%.  p $.] X.X.] X.] X.F g r ; #             ",
"%.%.%.  < $.] X.X.] T M r @ #                 %.",
"%.%.%.%.+ k $._ Z t > +                 %.%.%.%.",
"%.%.%.%.  5 l 8 o                 %.%.%.%.%.%.%.",
"%.%.%.%.  8 o               %.%.%.%.%.%.%.%.%.%.",
"%.%.%.%.%.            %.%.%.%.%.%.%.%.%.%.%.%.%.",
"%.%.%.%.%.        %.%.%.%.%.%.%.%.%.%.%.%.%.%.%.",
"%.%.%.%.%.%.%.%.%.%.%.%.%.%.%.%.%.%.%.%.%.%.%.%."
};
