/* XPM */
static char *stock_open.png[] = {
/* columns rows colors chars-per-pixel */
"24 24 217 2",
"   c black",
".  c #010100",
"X  c #010101",
"o  c #020201",
"O  c #040402",
"+  c #050504",
"@  c #060604",
"#  c #060605",
"$  c #070705",
"%  c #070806",
"&  c #080907",
"*  c #080908",
"=  c #0B0B0B",
"-  c #0C0C09",
";  c gray5",
":  c #1F1F00",
">  c #151611",
",  c #151612",
"<  c #151515",
"1  c #161616",
"2  c #181812",
"3  c #1A1B15",
"4  c #191919",
"5  c gray11",
"6  c gray12",
"7  c #242400",
"8  c #2A2A00",
"9  c #212115",
"0  c #202019",
"q  c #20201A",
"w  c #21211B",
"e  c #23241D",
"r  c #23251E",
"t  c #2A2A15",
"y  c #28281F",
"u  c #2A2A1C",
"i  c #2A2A1F",
"p  c #333300",
"a  c #33331E",
"s  c #38381C",
"d  c #2C2C21",
"f  c #2F2F23",
"g  c #2D2D25",
"h  c #2E2F25",
"j  c #2F2F25",
"k  c #2F2F27",
"l  c #2B2C28",
"z  c #2D3223",
"x  c #2F3327",
"c  c #303024",
"v  c #313125",
"b  c #303026",
"n  c #313126",
"m  c #323227",
"M  c #333326",
"N  c #333327",
"B  c #303328",
"V  c #313228",
"C  c #323228",
"Z  c #323328",
"A  c #333328",
"S  c #323428",
"D  c #333428",
"F  c #333429",
"G  c #33342B",
"H  c #3E3F32",
"J  c #3D3F34",
"K  c #434538",
"L  c #494B3D",
"P  c #4F5243",
"I  c #535445",
"U  c #555847",
"Y  c #6A6D59",
"T  c #6F735E",
"R  c #71735F",
"E  c #71745F",
"W  c #717460",
"Q  c #727560",
"!  c #797C66",
"~  c #797D67",
"^  c #747470",
"/  c #7D8069",
"(  c #7D8169",
")  c #80836C",
"_  c #80836D",
"`  c #81836C",
"'  c #81856C",
"]  c #82866E",
"[  c #84866E",
"{  c #858970",
"}  c #868971",
"|  c #878A76",
" . c #888C73",
".. c #898D74",
"X. c #8A8D74",
"o. c #8A8D75",
"O. c #8A8E74",
"+. c #8B8F75",
"@. c #8C8F76",
"#. c #8F9379",
"$. c #92957B",
"%. c #94987C",
"&. c #95987C",
"*. c #95987E",
"=. c #96997E",
"-. c #969B7E",
";. c #999D80",
":. c #999D81",
">. c #9A9D81",
",. c #9A9D82",
"<. c #9B9E83",
"1. c #9B9F83",
"2. c #9D9F90",
"3. c #9E9F91",
"4. c #9DA184",
"5. c #9DA185",
"6. c #9DA286",
"7. c #9FA286",
"8. c #9FA386",
"9. c #9FA387",
"0. c #A2A587",
"q. c #A1A588",
"w. c #A2A588",
"e. c #A3A789",
"r. c #A3A78A",
"t. c #A3A889",
"y. c #A4A88A",
"u. c #A4A98A",
"i. c #A5AA8B",
"p. c #A6AA8B",
"a. c #A5A98C",
"s. c #A6AA8C",
"d. c #A7AB8D",
"f. c #A8AC8E",
"g. c #A9AD8E",
"h. c #A9AD8F",
"j. c #AAAF8F",
"k. c #A6A998",
"l. c #AAAD96",
"z. c #ABB091",
"x. c #ACB091",
"c. c #ADB192",
"v. c #AFB394",
"b. c #AFB494",
"n. c #B0B494",
"m. c #B0B595",
"M. c #B2B696",
"N. c #B3B797",
"B. c #B3B896",
"V. c #B5B999",
"C. c #B6BB99",
"Z. c #B6BB9A",
"A. c #B8BC9B",
"S. c #B9BD9C",
"D. c #B9BE9D",
"F. c #BABF9D",
"G. c #B3B5A5",
"H. c #B5B8A5",
"J. c #B6B8A7",
"K. c #B8BBAA",
"L. c #BABDA8",
"P. c #BABCAB",
"I. c #BBC09E",
"U. c #BCC09F",
"Y. c #BCC19F",
"T. c #BDC2A0",
"R. c #BEC2A0",
"E. c #BFC4A1",
"W. c #C0C5A2",
"Q. c #C1C5A3",
"!. c #C2C6A4",
"~. c #C2C7A4",
"^. c #C0C3AF",
"/. c #C3C8A5",
"(. c #C4C9A5",
"). c #C4C9A6",
"_. c #C6CAA6",
"`. c #C6CBA7",
"'. c #C6CBA8",
"]. c #C7CCA8",
"[. c #C8CDA9",
"{. c #C9CEA9",
"}. c #C9CEAA",
"|. c #CACFAA",
" X c #CACFAB",
".X c #C1C3B2",
"XX c #C7CAB7",
"oX c #CACDBB",
"OX c #CCD1AC",
"+X c #CDD2AD",
"@X c #CED3AE",
"#X c #CFD4AF",
"$X c #D4D6C2",
"%X c #D5D8C4",
"&X c #D7DAC6",
"*X c #D7DAC9",
"=X c #D8DBC9",
"-X c #DADDC8",
";X c #DADCCC",
":X c #DDDFCB",
">X c #DADCD1",
",X c #DCDCD4",
"<X c #DEE1D0",
"1X c #E2E5CF",
"2X c #E3E6D4",
"3X c #E4E7D2",
"4X c #E0E0D9",
"5X c #E3E5D9",
"6X c #E5E6DA",
"7X c #E7EAD8",
"8X c #E8EBD9",
"9X c #EAECDD",
"0X c #EBEDDD",
"qX c #ECECE2",
"wX c #F2F2EA",
"eX c #F4F4EC",
"rX c None",
/* pixels */
"rXrXrXrXrXrXrXrXrXrXrXrXrXrXrXrXrXrXrXrXrXrXrXrX",
"rXrXrXrXrXrXrXrXrXrXrXrXrXrXrXrXrXrXrXrXrXrXrXrX",
"rXrX        6       rXrXrXrXrXrXrXrXrXrXrXrXrXrX",
"  @               @ < rXrXrXrXrXrXrXrXrXrXrXrXrX",
"9   H.3X3X3X3X3X| G w   rXrXrXrXrXrXrXrXrXrXrXrX",
"j = 1X#X#X#X@X@XM.j = t rXrXrXrXrXrXrXrXrXrXrXrX",
"e 2.1X_._.`.].{.{.U 3 j 4 6 6 6 6       rXrXrXrX",
"q $XR.B.b.B.Z.I.I.' H                   6 rXrXrX",
"e -XM.j.e.d.j.h.d.r.e.l.G.K.K..XXXoXK.  j   rXrX",
"- :X=.5.&.=.:.:.=.5.r.r.r.e.r.0.0.:.X.  k 6     ",
"  -X[ ( >                                   & y ",
"  *X~ J 4X9X8X7X8X8X8X8X8X8X8X8X9X7X2X<X;X>Xl G ",
"  &XT ; eX#X#X#X#X#X#X#X#X#X#X@X@X X`.~.R.z.e v ",
"  &XL ,X9X@X@X@X+X#X+X@X#X@XOXOX X`.~.S.Z.' % G ",
"  &X< wX{.{.+X X]. X{.].].].`._.~.S.Z.M.<.I - v ",
"  J.^ qX~.~.~.~.E.~.E.E.E.R.S.S.M.M.h.r._   2 v ",
"  k.,XA.A.Z.B.B.b.B.b.b.b.j.d.d.5.<.:.X.P @ G d ",
"  3.6Xz.h.r.d.r.e.9.9.5.1.<.:.$.@.X.X.W * > z 5 ",
"  5X.X=.#.+.X.| X.} } { ( ( ~ Q W Q Y K & v y   ",
"N                                     @ q g 6 rX",
"N N N S N N G N N N G G N G N N D S D S x u   rX",
"v v v v N N N N N N N N N N N N N v v g u   rXrX",
"  8 : : s s M s s s s s M s s s s 6 7 p   rXrXrX",
"rXrXrXrXrXrXrXrXrXrXrXrXrXrXrXrXrXrXrXrXrXrXrXrX"
};
