/* XPM */
static char *stock_import.png[] = {
/* columns rows colors chars-per-pixel */
"24 24 206 2",
"   c black",
".  c #010100",
"X  c #010101",
"o  c #020201",
"O  c gray1",
"+  c #040402",
"@  c #040403",
"#  c #050504",
"$  c #080806",
"%  c #080907",
"&  c #090907",
"*  c #0A0A07",
"=  c #090908",
"-  c #0A0908",
";  c #0A0A08",
":  c #0B0B0B",
">  c #0C0C09",
",  c #0D0D0A",
"<  c gray5",
"1  c #1F1F00",
"2  c gray7",
"3  c #151612",
"4  c #161614",
"5  c #161616",
"6  c #181816",
"7  c #191A15",
"8  c #1C1C16",
"9  c #1E1F18",
"0  c gray11",
"q  c #2A2A00",
"w  c #20201A",
"e  c #21201E",
"r  c #22231C",
"t  c #23241D",
"y  c #23241E",
"u  c #23251E",
"i  c #2A2A15",
"p  c #33331E",
"a  c #38381C",
"s  c #282724",
"d  c #2C2C21",
"f  c #2C2C23",
"g  c #2D2D25",
"h  c #2E2F25",
"j  c #2F2F27",
"k  c #2B2C28",
"l  c #303024",
"z  c #303026",
"x  c #313126",
"c  c #323227",
"v  c #333326",
"b  c #333327",
"n  c #313228",
"m  c #323228",
"M  c #323328",
"N  c #323329",
"B  c #333328",
"V  c #323428",
"C  c #333428",
"Z  c #333429",
"A  c #33342B",
"S  c #343529",
"D  c #363430",
"F  c #3E3F32",
"G  c #3D3F34",
"H  c #42413C",
"J  c #43423F",
"K  c #494B3D",
"L  c #484641",
"P  c #494943",
"I  c #555847",
"U  c #595854",
"Y  c #5D5C55",
"T  c #605E57",
"R  c #65635C",
"E  c #6F715D",
"W  c #6F735E",
"Q  c #6D6B63",
"!  c #76746B",
"~  c #797D67",
"^  c #727270",
"/  c #747470",
"(  c #7D8169",
")  c #807D74",
"_  c #81856C",
"`  c #84866E",
"'  c #858970",
"]  c #878A76",
"[  c #888C73",
"{  c #898D74",
"}  c #8A8E74",
"|  c #8B8F75",
" . c #8C8F76",
".. c #8F9379",
"X. c #94987C",
"o. c #95987C",
"O. c #96997E",
"+. c #969B7E",
"@. c #878883",
"#. c #888781",
"$. c #898883",
"%. c #8C8B89",
"&. c #908E86",
"*. c #93918B",
"=. c #97958E",
"-. c #999D80",
";. c #9A9D81",
":. c #9B9E83",
">. c #9D9F90",
",. c #9E9F91",
"<. c #9F9D96",
"1. c #9DA184",
"2. c #9DA286",
"3. c #9FA386",
"4. c #A2A587",
"5. c #A1A588",
"6. c #A2A588",
"7. c #A3A789",
"8. c #A3A78A",
"9. c #A3A889",
"0. c #A4A88A",
"q. c #A4A98A",
"w. c #A5AA8B",
"e. c #A6AA8B",
"r. c #A5A98C",
"t. c #A6AA8C",
"y. c #A7AB8D",
"u. c #A9AD8E",
"i. c #A9AD8F",
"p. c #AAAF8F",
"a. c #A6A998",
"s. c #AAAD96",
"d. c #ABB091",
"f. c #ADB192",
"g. c #AFB394",
"h. c #AFB494",
"j. c #B0B595",
"k. c #B2B696",
"l. c #B3B797",
"z. c #B3B896",
"x. c #B5B999",
"c. c #B6BB99",
"v. c #B8BC9B",
"b. c #ABA9A3",
"n. c #B0AFA9",
"m. c #B3B5A5",
"M. c #B6B5AF",
"N. c #B5B8A5",
"B. c #B6B8A7",
"V. c #B8BBAA",
"C. c #BABDA8",
"Z. c #BABCAB",
"A. c #BAB9B6",
"S. c #BBC09E",
"D. c #BCC19F",
"F. c #BEC2A0",
"G. c #BFC4A1",
"H. c #C0C5A2",
"J. c #C2C6A4",
"K. c #C2C7A4",
"L. c #C0C3AF",
"P. c #C3C8A5",
"I. c #C4C9A5",
"U. c #C6CAA6",
"Y. c #C6CBA7",
"T. c #C6CBA8",
"R. c #C7CCA8",
"E. c #C9CEA9",
"W. c #C9CEAA",
"Q. c #CACFAA",
"!. c #CACFAB",
"~. c #C1C3B2",
"^. c #C7CAB7",
"/. c #CACDBB",
"(. c #CDD2AD",
"). c #CED3AE",
"_. c #CFD4AF",
"`. c #C8C7C2",
"'. c #D4D6C2",
"]. c #D5D8C4",
"[. c #D7DAC6",
"{. c #D7DAC9",
"}. c #D8DBC9",
"|. c #DADDC8",
" X c #DADCCC",
".X c #DDDFCB",
"XX c #D5D4D1",
"oX c #DADCD1",
"OX c #DCDCD4",
"+X c #DFDEDC",
"@X c #DEE1D0",
"#X c #E2E5CF",
"$X c #E3E6D4",
"%X c #E4E7D2",
"&X c #E0E0D9",
"*X c #E3E5D9",
"=X c #E5E6DA",
"-X c #E7EAD8",
";X c #E8EBD9",
":X c #EAECDD",
">X c #EBEDDD",
",X c #E6E6E4",
"<X c #ECECE2",
"1X c #F2F2EA",
"2X c #F4F4EC",
"3X c None",
/* pixels */
"3X3X3X3X3X3X3X3X3X3X3X3X3X3X3X3X3X3X3X3X3X3X3X3X",
"3X3X3X3X3X3X3X3X3X3X3X3X3X3X3X3X3X3X3X3X3X3X3X3X",
"                      3X3X3X3X3X3X3X3X3X3X3X3X3X",
"    N.%X%X%X%X%X] A 2 3X3X3X3X3X3X3X3X3X3X3X3X3X",
"h : #X_._._.(.(.k.h #   3X3X3X3X3X3X3X3X3X3X3X3X",
"r >.#XU.U.U.!.!.!.I 7 i 3X3X3X3X3X3X3X3X3X3X3X3X",
"w '.F.z.h.z.c.v.v._ F                   3X3X3X3X",
"t |.h.p.8.w.p.p.y.w.5.s.m.V.Z.~.^./.Z.  0 3X3X3X",
": .X+.1.O.O.;.;.O.1.e.w.8.5.7.4.3.:.|   h   3X3X",
"  |.` ( 3                                       ",
"  {.~ G +X:X;X;X;X;X;X;X;X;X;X;X:X;X$X@X XoXk f ",
"  [.W , 2X_._._._._._._._._._.      T.H.v.g.t A ",
"  [.K OX:X(.).(.(.(.(.h.: = 8.# A.# :.& & E # b ",
"  [.5 1X!.(.!.!.!.!.!.: #.! : L <.L : #.y @ , A ",
"  B.! <XK.H.K.H.G.H.G.= `.M.<.<.<.&.=.) L   8 b ",
"  a.OXv.v.c.l.l.h.k.g.| % <.<.U T #.) ! @ # b b ",
"  >.=Xg.s.e.8.8.5.5.    P <.T L s D <.Q L     f ",
"  =XG.O...| | ] | '   %.M.<.U e = 5 ,X) R Y   0 ",
"A                       L <.$.D 5 %.+XR L       ",
"A A A b S S S A S S S 8   m.) M.,XXX*.R   ; 0 3X",
"b A A b A A A b S A A   M.b.<.) ) ! ! Y L     3X",
"p l l b b b b b b S b     U   L ! L   P     3X3X",
"  q 1 1 a a a a a a a @         H           3X3X",
"3X3X3X3X3X3X3X3X3X3X3X3X3X3X3X      3X3X3X3X3X3X"
};
