/* XPM */
static char *stock_save_as.png[] = {
/* columns rows colors chars-per-pixel */
"24 24 152 2",
"   c black",
".  c #0C0D0F",
"X  c #28323E",
"o  c #33383C",
"O  c #363C40",
"+  c #313E49",
"@  c #383E43",
"#  c #34464E",
"$  c #3B444C",
"%  c #364853",
"&  c #364A59",
"*  c #3A515D",
"=  c #3B5360",
"-  c #783E35",
";  c #4F4115",
":  c #5D502C",
">  c #5C5130",
",  c #614F2F",
"<  c #61562F",
"1  c #615030",
"2  c #655931",
"3  c #6C5F34",
"4  c #434345",
"5  c #40474D",
"6  c #414A4E",
"7  c #4E4A43",
"8  c #434C53",
"9  c #4D4C52",
"0  c #475158",
"q  c #4A545B",
"w  c #514E46",
"e  c #455C6D",
"r  c #4F5B62",
"t  c #4E5E6A",
"y  c #465E70",
"u  c #515B63",
"i  c #5B5A62",
"p  c #496173",
"a  c #4C6579",
"s  c #4E687C",
"d  c #556169",
"f  c #59646D",
"g  c #5D6A73",
"h  c #5B6E7C",
"j  c #735B5B",
"k  c #605F68",
"l  c #67655E",
"z  c gray39",
"x  c #6C6C6C",
"c  c #626F79",
"v  c #686670",
"b  c #6A6E71",
"n  c #6F777E",
"m  c #727272",
"M  c #75757A",
"N  c gray48",
"B  c #4E6E82",
"V  c #526D82",
"C  c #54738C",
"Z  c #65859C",
"A  c #6E899E",
"S  c #778999",
"D  c #7A8E9A",
"F  c #6B8DA5",
"G  c #6F90AC",
"H  c #718CA2",
"J  c #7790A2",
"K  c #7192AD",
"L  c #7B97AE",
"P  c #7897B3",
"I  c #7B9AB2",
"U  c #7DA0B6",
"Y  c #7FA2B9",
"T  c #8F4941",
"R  c #945554",
"E  c #CB7B72",
"W  c #DB7968",
"Q  c #EDA43E",
"!  c #F0A93F",
"~  c #C8817B",
"^  c #D38072",
"/  c #DC8171",
"(  c #D7AE74",
")  c #E0816E",
"_  c #E08D7E",
"`  c #EFB44D",
"'  c #F3AF42",
"]  c #F6B444",
"[  c #F2B64D",
"{  c #F6D236",
"}  c #F8D837",
"|  c #F9DD38",
" . c #FAE53A",
".. c #FCEA3C",
"X. c #97938C",
"o. c #9B968E",
"O. c gray58",
"+. c #9B9B9B",
"@. c #819EB6",
"#. c #83A1B6",
"$. c #84A1B9",
"%. c #89A5BB",
"&. c #92A7B9",
"*. c #A4A099",
"=. c #A5A5A5",
"-. c #B8B3AB",
";. c #B7B7B7",
":. c #B8B5B0",
">. c #BABABA",
",. c #87ABC1",
"<. c #88A7C3",
"1. c #8AAAC5",
"2. c #96B1C7",
"3. c #A4B9CB",
"4. c #9BC3D8",
"5. c #A2C2DB",
"6. c #AAC6DD",
"7. c #B3CADC",
"8. c #BACCDC",
"9. c #ABC4E2",
"0. c #AACAE2",
"q. c #B5CAE5",
"w. c #B4D2E6",
"e. c #B9D3E6",
"r. c #BAD5E8",
"t. c #C0BCB5",
"y. c #C2BFB9",
"u. c #E8B6AC",
"i. c #EDBDB4",
"p. c #C7C4BE",
"a. c #EEC3B9",
"s. c #F0C6BC",
"d. c #F1C8BE",
"f. c #C5C5C5",
"g. c #C9C6C0",
"h. c #CCC9C3",
"j. c #CCCCCC",
"k. c #D1CEC9",
"l. c #D5D4D1",
"z. c #D9D7D4",
"x. c #DBD9D5",
"c. c #DDDBD9",
"v. c #C3D7F4",
"b. c #E0DEDA",
"n. c #E2E0DD",
"m. c #E4E4E2",
"M. c #E9E8E6",
"N. c #EBEBE9",
"B. c #F0EFEC",
"V. c #F5F5F5",
"C. c #FEFEFE",
"Z. c None",
/* pixels */
"Z.Z.Z.Z.Z.Z.Z.Z.Z.Z.Z.Z.Z.Z.Z.            Z.Z.Z.",
"Z.Z.Z.Z.Z.Z.Z.Z.Z.Z.Z.Z.Z.Z.    ..[         Z.Z.",
"Z.                            ..] :             ",
"Z.  v.0.M s.d.d.i.i.s.i.u.  ..] 3   4 &.2.      ",
"Z.  r.1.i u.W ) W / W E   | ] <   - 9 H V       ",
"Z.  r.<.k E E E E E E   | ] ,   T R i L V       ",
"Z.  w.,.x C.C.C.C.C.  | ` 2   >.j.m.x @.V       ",
"Z.  r.%.x C.C.C.C.  } ! 2   >.j.M.V.m $.s       ",
"Z.  w.<.m j.j.j.  { Q >   O.=.;.f.>.m %.p       ",
"Z.  w.$.z C.C.C.  ( 2   >.j.m.V.C.C.m %.y       ",
"Z.  q.$.m C.C.  ;     >.j.m.V.C.C.C.m $.e       ",
"Z.  0.Y m j.j.    +.+.=.;.f.j.j.j.f.m $.d       ",
"Z.  w.#.j C.C.V.z.l.m.N.V.C.C.C.C.C.m $.u       ",
"Z.  0.I D N m b x x b b b m m m m x n $.*       ",
"Z.  0.K @.@.$.@.I I @.L $.#.$.%.@.%.$.%.&       ",
"Z.  9.K G K 5 8 u c c g f f d u = $ P 3.%       ",
"Z.  0.G F q X.c.b.M.M.M.b.k.g.o.d a C 6.#       ",
"Z.  0.F F 5 x.n.l w w z.p.t.-.k.8 s B 7.+       ",
"Z.  0.F J 6 n.B.l w w h.y.t.g.c.q s B 8.+       ",
"Z.  5.F H o n.N.w w w p.t.g.b.M.0 s B 5.@       ",
"Z.  S A Z o l.l.w > 4 >.k.n.N.m.8 p a 5.O       ",
"Z.  . t h r *.t.-.k.j.l.n.M.c.:.6 p y 4.O       ",
"Z.                                    X         ",
"Z.                                              "
};
