/* XPM */
static char *stock_save.png[] = {
/* columns rows colors chars-per-pixel */
"24 24 220 2",
"   c black",
".  c #0C0D0F",
"X  c #28323E",
"o  c #33383C",
"O  c #363C41",
"+  c #373C40",
"@  c #313E49",
"#  c #383E43",
"$  c #383F43",
"%  c #34464E",
"&  c #39424B",
"*  c #3E474D",
"=  c #364853",
"-  c #364A59",
";  c #3A515D",
":  c #3B5360",
">  c #40474D",
",  c #414A4E",
"<  c #4D4942",
"1  c #4E4A43",
"2  c #4F4C44",
"3  c #424A51",
"4  c #434C54",
"5  c #454F55",
"6  c #475158",
"7  c #4A5359",
"8  c #4B555D",
"9  c #514E46",
"0  c #524F47",
"q  c #455C6D",
"w  c #4F5B62",
"e  c #4E5E6A",
"r  c #465E70",
"t  c #525B63",
"y  c #515C64",
"u  c #486173",
"i  c #4A6070",
"p  c #486276",
"a  c #4A6176",
"s  c #4B657A",
"d  c #4D6678",
"f  c #4E6879",
"g  c #4D697F",
"h  c #4F697C",
"j  c #4E697F",
"k  c #546069",
"l  c #566168",
"z  c #57636A",
"x  c #58636B",
"c  c #5A666F",
"v  c #5C6971",
"b  c #5F6C76",
"n  c #5B6E7C",
"m  c #735B5B",
"M  c #605F68",
"N  c #67655E",
"B  c gray39",
"V  c #626169",
"C  c DimGray",
"Z  c #6F6F6F",
"A  c #626F79",
"S  c #686670",
"D  c #6B6F72",
"F  c #6F777E",
"G  c gray45",
"H  c #737277",
"J  c #75757A",
"K  c gray48",
"L  c #4D6C80",
"P  c #4F6F84",
"I  c #526C80",
"U  c #547086",
"Y  c #567187",
"T  c #54738C",
"R  c #65859C",
"E  c #6E899E",
"W  c #778999",
"Q  c #7A8E9A",
"!  c #698BA3",
"~  c #6B8DA6",
"^  c #6C8CA4",
"/  c #6C8EA6",
"(  c #6F8FA7",
")  c #6F90AC",
"_  c #708AA1",
"`  c #728FA4",
"'  c #7091AA",
"]  c #7192AE",
"[  c #7294AD",
"{  c #7494AF",
"}  c #7897B3",
"|  c #7998B2",
" . c #7B9BB2",
".. c #7E9CB5",
"X. c #7F9DB6",
"o. c #7DA0B6",
"O. c #7FA2B9",
"+. c #BF6B64",
"@. c #BA6C6A",
"#. c #C36459",
"$. c #C36558",
"%. c #C2655B",
"&. c #C4675B",
"*. c #C16A62",
"=. c #CE7265",
"-. c #CF7264",
";. c #CE7567",
":. c #CB7A73",
">. c #CB7B73",
",. c #CB7D73",
"<. c #CB7C74",
"1. c #CC7A70",
"2. c #CC7C72",
"3. c #CC7C73",
"4. c #D47D6E",
"5. c #DA7868",
"6. c #DC7A68",
"7. c #C8817B",
"8. c #D48173",
"9. c #DC8171",
"0. c #E0806E",
"q. c #E0826E",
"w. c #E08D7E",
"e. c #97938C",
"r. c #9B968E",
"t. c #819EB6",
"y. c #829FB7",
"u. c #83A1B6",
"i. c #87A3B7",
"p. c #83A0B8",
"a. c #82A0BB",
"s. c #85A1B8",
"d. c #86A2B9",
"f. c #87A3BA",
"g. c #84A3BF",
"h. c #85A4BF",
"j. c #88A4BB",
"k. c #8AA5BB",
"l. c #8CA7BD",
"z. c #A4A099",
"x. c #B8B3AB",
"c. c #B8B5B0",
"v. c gray75",
"b. c #87ABC1",
"n. c #88A7C3",
"m. c #8AAAC5",
"M. c #A4B9CB",
"N. c #A1BED6",
"B. c #9BC3D8",
"V. c #A1C1DA",
"C. c #A3C3DB",
"Z. c #A4C4DE",
"A. c #AAC6DD",
"S. c #B3CADC",
"D. c #BACCDC",
"F. c #ABC4E2",
"G. c #A8C8E1",
"H. c #A9C9E2",
"J. c #AAC9E1",
"K. c #AAC9E2",
"L. c #AACEE3",
"P. c #A9CDE5",
"I. c #AECCE5",
"U. c #B3CDE3",
"Y. c #B5CAE5",
"T. c #B0D1E4",
"R. c #B6D3E7",
"E. c #B7D2E7",
"W. c #B9D3E6",
"Q. c #B9D3E7",
"!. c #BAD5E9",
"~. c #BBD6E8",
"^. c #C0BCB5",
"/. c #C2BFB9",
"(. c #E9B7AD",
"). c #E9B8AF",
"_. c #E5BFBA",
"`. c #E9B9B1",
"'. c #EEBCB2",
"]. c #EDBFB6",
"[. c #EEBEB5",
"{. c #C7C4BE",
"}. c #C7C5BF",
"|. c #EEC1B8",
" X c #EFC5BB",
".X c #F0C6BC",
"XX c #F1C8BE",
"oX c #C5C5C5",
"OX c #C9C6C0",
"+X c #CAC6C0",
"@X c #CBC8C2",
"#X c #CCC9C3",
"$X c #CDCAC6",
"%X c #CFCEC9",
"&X c #CDCDCD",
"*X c #CECECE",
"=X c #D1CEC9",
"-X c #D6D4D0",
";X c #D7D4D0",
":X c #D7D5D1",
">X c #D9D7D4",
",X c #DAD8D3",
"<X c #DCDAD7",
"1X c #DDDBD7",
"2X c #DFDDDA",
"3X c #C3D7F4",
"4X c #E0DEDA",
"5X c #E1E0DC",
"6X c #E2E1DD",
"7X c #E3E1DE",
"8X c #E4E2E0",
"9X c #E6E5E2",
"0X c #E7E6E2",
"qX c #E9E8E6",
"wX c #EAE9E7",
"eX c #EBEAE8",
"rX c #EDECEA",
"tX c #F0EFEC",
"yX c gray100",
"uX c None",
/* pixels */
"uXuXuXuXuXuXuXuXuXuXuXuXuXuXuXuXuXuXuXuXuXuXuXuX",
"uX                                              ",
"uX  3XP.J  XXXXX'.].|.].(.).(.).)._.H Y.N.      ",
"uX  ~.m.V w.q.6.6.9.5.8.4.=.-.;.&.%.V u.Y       ",
"uX  ~.n.S 7.:.:.1.:.:.+.1.*.3.%.$.@.C y.Y       ",
"uX  R.b.G yXyXyXyXyXyXyXyXyXyXyXyXyXG y.I       ",
"uX  Q.h.G yXyXyXyXyXyXyXyXyXyXyXyXyXG a.g       ",
"uX  Q.g.G *X*X*X&X&X&X&X*X*X*X*X*Xv.G k.a       ",
"uX  R.a.B yXyXyXyXyXyXyXyXyXyXyXyXyXG f.r       ",
"uX  Y.o.G yXyXyXyXyXyXyXyXyXyXyXyXyXG u.q       ",
"uX  I.X.G *X*X*X&X&X&X&X&X&X&X&X*XoXH j.l       ",
"uX  T.y.m yXyXyXyXyXyXyXyXyXyXyXyXyXG u.y       ",
"uX  L. .Q K G H G G G D Z G G G G C F u.;       ",
"uX  H.{ y.u.u.y.....y.} u.u.u.f.y.l.a.k.-       ",
"uX  F.[ ) ] , 3 y A b v c x x y : & } M.=       ",
"uX  H.' ( 7 e.4X7XeXeXeX2X=X+Xr.l d T A.%       ",
"uX  H./ ^ > ,X0XN 0 0 >X}.^.x.=X4 g P S.@       ",
"uX  H./ ` > 6XtXN 0 0 $X/.^.+X>X8 g P D.@       ",
"uX  Z.! _ $ 4XwX0 2 2 }.^.#X6XwX6 f L C.$       ",
"uX  W E R o ;X;X< < < ^.=X9XrX9X5 u d V.+       ",
"uX  . e n w z.^.x.#X#X;X8XwX1Xc.* a u B.+       ",
"uX                                    X         ",
"uX                                              ",
"uXuX                                            "
};
