/* XPM */
static char *stock_first.png[] = {
/* columns rows colors chars-per-pixel */
"24 24 57 1",
"  c black",
". c #2D2D2D",
"X c #3B5035",
"o c #3C5235",
"O c #415639",
"+ c #475E3E",
"@ c #4A6342",
"# c #547150",
"$ c #5B7950",
"% c #678C63",
"& c #698267",
"* c #6B9063",
"= c #7EAB78",
"- c #889D7F",
"; c #86AF82",
": c #87AF84",
"> c #88AF84",
", c #87B083",
"< c #88B085",
"1 c #8EB48A",
"2 c #95A88F",
"3 c #9FB79B",
"4 c #A9C4A7",
"5 c #AAC5A8",
"6 c #AAC7A8",
"7 c #ADC6AB",
"8 c #AEC7AC",
"9 c #ACC8A9",
"0 c #ADC8AB",
"q c #B0C7AE",
"w c #B0C9AE",
"e c #B3C4B3",
"r c #B0C9B0",
"t c #B3CAB1",
"y c #B3CCB1",
"u c #B5CEB5",
"i c #B7CCB5",
"p c #B9CEB7",
"a c #BBCFBA",
"s c #BFCEBF",
"d c #BAD1B9",
"f c #BFD4BF",
"g c #C2CDC2",
"h c #C7D7C5",
"j c #CBD6CA",
"k c #C9DBC9",
"l c #CBDAC9",
"z c #DAE5D9",
"x c #DBE5DB",
"c c #E0EADE",
"v c #E4ECE3",
"b c #E6EEE5",
"n c #E6EEE6",
"m c #E7EFE6",
"M c #E7EFE7",
"N c gray97",
"B c None",
/* pixels */
"BBBBBBBBBBBBBBBBBBBBBBBB",
"BBBBBBBBBBBBBBBBBBBBBBBB",
"BBBBBBBBBBBBBB BBBBBBBBB",
"BB    BBBBBBB  BBBBBBBBB",
"BB Nj BBBBBB   BBBBBBBBB",
"BB M9 BBBBB  k BBBBBBBBB",
"BB M9 BBBB  Ms BBBBBBBBB",
"BB M9 BBB  Mae        BB",
"BB M9 BB  Mpuuafhxxl= BB",
"BB M9 B  Mdtww844404& BB",
"BB M9  .xyw7894w8q89% BB",
"BB 3*  g1<<>:>;>:<<;# BB",
"BB 2$   o$$$$$$$$$$$@ BB",
"BB 2$ B  o$$$$$$$$$$@ BB",
"BB 2$ BB  o$$@XXXXXXO BB",
"BB 2$ BBB  o$@        BB",
"BB 2$ BBBB  o@ BBBBBBBBB",
"BB 2$ BBBBB  @ BBBBBBBBB",
"BB -+ BBBBBB   BBBBBBBBB",
"BB    BBBBBBB  BBBBBBBBB",
"BBBBBBBBBBBBBB BBBBBBBBB",
"BBBBBBBBBBBBBBBBBBBBBBBB",
"BBBBBBBBBBBBBBBBBBBBBBBB",
"BBBBBBBBBBBBBBBBBBBBBBBB"
};
