/* XPM */
static char *stock_volume.png[] = {
/* columns rows colors chars-per-pixel */
"24 24 216 2",
"   c black",
".  c #030000",
"X  c #090909",
"o  c #100A03",
"O  c #140D04",
"+  c #191307",
"@  c #1F1B15",
"#  c #1B1B1B",
"$  c #20190D",
"%  c #261F13",
"&  c #242014",
"*  c #292116",
"=  c #292417",
"-  c #282218",
";  c #2B251E",
":  c #2C261D",
">  c #2E271F",
",  c #332D1F",
"<  c #2B2924",
"1  c #2D2822",
"2  c #373023",
"3  c #3B3121",
"4  c #3B3221",
"5  c #393024",
"6  c #3E3120",
"7  c #3A352E",
"8  c #3C3428",
"9  c #3E3629",
"0  c #3F3728",
"q  c #403524",
"w  c #443927",
"e  c #433B2E",
"r  c #473B2C",
"t  c #443C2C",
"y  c #453C2E",
"u  c #453C2F",
"i  c #483C2D",
"p  c #4B3D2C",
"a  c #453C30",
"s  c #403E39",
"d  c #4C3F30",
"f  c #474035",
"g  c #4D4132",
"h  c #4D473D",
"j  c #4D463E",
"k  c #514432",
"l  c #534A39",
"z  c #52493C",
"x  c #574A39",
"c  c #564C39",
"v  c #574D3A",
"b  c #584A35",
"n  c #584A37",
"m  c #5B4D3A",
"M  c #5B503C",
"N  c #5F523E",
"B  c gray30",
"V  c #544E43",
"C  c #5A5043",
"Z  c #5A5143",
"A  c #5F5443",
"S  c #5B564A",
"D  c #625743",
"F  c #645740",
"G  c #665743",
"H  c #665744",
"J  c #695A46",
"K  c #6B5B47",
"L  c #6B5C48",
"P  c #6B5F49",
"I  c #6D5D4C",
"U  c #665F52",
"Y  c #6F624C",
"T  c #676459",
"R  c #726148",
"E  c #70614C",
"W  c #71624C",
"Q  c #71644C",
"!  c #72644D",
"~  c #75644E",
"^  c #79674D",
"/  c #79674E",
"(  c #706554",
")  c #766A51",
"_  c #756955",
"`  c #786650",
"'  c #796751",
"]  c #7B6A52",
"[  c #7C6A50",
"{  c #7C6A53",
"}  c #74706D",
"|  c #7B7466",
" . c #7C7061",
".. c #7C776B",
"X. c #7E7768",
"o. c #867156",
"O. c #867256",
"+. c #81725A",
"@. c #83715F",
"#. c #84745B",
"$. c #86745A",
"%. c #85755C",
"&. c #8B775C",
"*. c #8A775F",
"=. c #8C795C",
"-. c #8E795C",
";. c #8F7A5F",
":. c #827564",
">. c #847766",
",. c #807C7A",
"<. c #937E60",
"1. c #917F64",
"2. c #947E61",
"3. c #957F66",
"4. c #8C8471",
"5. c #888178",
"6. c #8B867D",
"7. c #8F8678",
"8. c #8F877A",
"9. c #978061",
"0. c #91846C",
"q. c #93846F",
"w. c #9A8064",
"e. c #9A8365",
"r. c #998464",
"t. c #9A8567",
"y. c #9C8666",
"u. c #9C876B",
"i. c #938672",
"p. c #A48A6A",
"a. c #A69071",
"s. c #A69176",
"d. c #A0917B",
"f. c #A59378",
"g. c #AB9170",
"h. c #AA9174",
"j. c #AA9374",
"k. c #AC9576",
"l. c #AF9675",
"z. c #B19977",
"x. c #BBA17F",
"c. c #9B9185",
"v. c #9F9A91",
"b. c #AD9B83",
"n. c #A49D90",
"m. c #A29F99",
"M. c #B09C80",
"N. c #B29E84",
"B. c #B09D88",
"V. c #AFA496",
"C. c #B6A289",
"Z. c #B6A58B",
"A. c #B8A382",
"S. c #B9A282",
"D. c #B9A58C",
"F. c #BAA78F",
"G. c #BCA78E",
"H. c #B2A693",
"J. c #B5A590",
"K. c #B9AA96",
"L. c #BCAB94",
"P. c #BDAF9B",
"I. c #BEB09B",
"U. c #BDB09E",
"Y. c #AEABA7",
"T. c #B7B0A6",
"R. c #BFBCB8",
"E. c #C1A480",
"W. c #C2AA8A",
"Q. c #C0AF99",
"!. c #CEB18A",
"~. c #C8B193",
"^. c #CAB091",
"/. c #CEB797",
"(. c #C9B59D",
"). c #CEB89B",
"_. c #D3B58C",
"`. c #C3B6A5",
"'. c #C4B7A7",
"]. c #C2B9AB",
"[. c #C7BCAD",
"{. c #C1BDB4",
"}. c #C3BFB7",
"|. c #CEC4B6",
" X c #CCC3B9",
".X c #CCC7BF",
"XX c #D3C2AE",
"oX c #D9C3A7",
"OX c #D1C7BA",
"+X c #D3CABA",
"@X c #D2C9BD",
"#X c #D8C9B6",
"$X c #DCC8B0",
"%X c #DDCEB7",
"&X c #D8CCBC",
"*X c #DECCB9",
"=X c #DCCFBE",
"-X c #DED0BF",
";X c #E2CBAF",
":X c #CFC9C2",
">X c #D0CCC2",
",X c #D4CCC1",
"<X c #D2CEC9",
"1X c #D7D1CC",
"2X c #E2D6C7",
"3X c #E2DBD3",
"4X c #E0DDD7",
"5X c #ECE0CE",
"6X c #EFE1CD",
"7X c #E7E4DC",
"8X c #F0E6D8",
"9X c #ECE8E4",
"0X c #EEEAE5",
"qX c #F2F0ED",
"wX c #FCFCFB",
"eX c None",
/* pixels */
"eXeXeXeXeXeXeXeXeXeXeXeXeXeXeXeXeXeXeXeXeXeXeXeX",
"eXeXeXeXeXeXeXeXeXeXeXeXeXeXeXeXeXeXeXeXeXeXeXeX",
"eXeX                      eXeX          eXeXeXeX",
"eXeX  wX0X0XqX@X@X@X@XJ.    o z 5.T V #   eXeXeX",
"eXeX  0XOXOX3X{ { { { J   - X.T.Y.6.| U X   eXeX",
"eXeX  0XOXOX3X{ { { { ; ; 7..XR.8 & 4 D &   eXeX",
"eXeX  0XOXOX3X{ { ` @ < 8.1X}.S = 0 y l n     eX",
"eXeX  0XOXOX3X{ ~ 1 B v.4X:XX., i v v M E +   eX",
"eXeX  0XOXOX3X{ f } }.9X:Xn.Z 4 N P E E E k   eX",
"eXeX  0XOXOX3X{ 7 <X7X XV.c.y n ) +.%.%.! F   eX",
"eXeX  0XOXOX3X{ 7 ,X[.H.].4.r R &.1.1.1.{ (   eX",
"eXeX  0XOXOX3X{ V ].P.P.|.i.Z m.0.u.u.u.$. .  eX",
"eXeX  0XOXOX3X{ h Z.L.M.+Xd.y ..@.a.a.a.<.:.  eX",
"eXeX  0XOXOX3X{ y h.k.h.&Xb.n 9 -.z.z.z.=.:.  eX",
"eXeX  0XOXOX3X{ 8 { 2.2.=XG.' 3.l.x.E.z.f.I   eX",
"eXeX  0XOX+X3X{ g p / O.*X).O.D.2X%X*X/.s.A   eX",
"eXeX  0XOXOX3X{ ' 5 p 3.W.oXt.g.~.3X8X-XB.4   eX",
"eXeX  0XOXOX3X{ { {   r y.x.C.9.E.;X6X(.q.$   eX",
"eXeX  0XOXOX3X{ { { J 1 * &.~.D.p.!._.M.y   eXeX",
"eXeX  0XOXOX3X{ { { { H   O G A.oX*XQ._     eXeX",
"eXeX  P.K.K.'.J J J J L       q y.t.m .   eXeXeX",
"eXeX                      eX            eXeXeXeX",
"eXeXeXeXeXeXeXeXeXeXeXeXeXeXeXeXeXeXeXeXeXeXeXeX",
"eXeXeXeXeXeXeXeXeXeXeXeXeXeXeXeXeXeXeXeXeXeXeXeX"
};
