/* XPM */
static char *stock_preferences.png[] = {
/* columns rows colors chars-per-pixel */
"24 24 88 1",
"  c black",
". c #1C1C1B",
"X c gray18",
"o c #4E4E4D",
"O c #54524D",
"+ c #676560",
"@ c #726F6A",
"# c #79756F",
"$ c gray46",
"% c #777676",
"& c #797772",
"* c #787776",
"= c #797978",
"- c #586D84",
"; c #5B7189",
": c #60768F",
"> c #607791",
", c #637B95",
"< c #6C85A1",
"1 c #7590AE",
"2 c #85827E",
"3 c #87837C",
"4 c #88857D",
"5 c #89857E",
"6 c #818A95",
"7 c #9F9F9E",
"8 c #8193A9",
"9 c #8D98A5",
"0 c #849CB6",
"q c #97A5B6",
"w c #90A6BE",
"e c #91A6BE",
"r c #A19D96",
"t c #A5A19C",
"y c #A7A6A5",
"u c #AAAAA9",
"i c #ACACAB",
"p c #AFAFAF",
"a c #A2AEBC",
"s c #BAB5AB",
"d c #B8B4AD",
"f c #BEBDBC",
"g c #BFBEBD",
"h c #99ADC3",
"j c #9DB6CE",
"k c #9DB8D2",
"l c #A1B4C8",
"z c #A4BAD0",
"x c #B0C6DB",
"c c #C1BDB4",
"v c #C1C0BF",
"b c #C6C2BA",
"n c #C9C6BE",
"m c #CBC7C0",
"M c #CCC8C1",
"N c gray80",
"B c #D0CDC6",
"V c #D3D1CB",
"C c #D9D6D1",
"Z c #DBD8D3",
"A c gainsboro",
"S c #DEDDDC",
"D c #C0D1E2",
"F c #D3DFEA",
"G c #D7E2ED",
"H c #DFE7F0",
"J c #E2E2E2",
"K c #E5E3E0",
"L c #EAE9E5",
"P c #EAE9E6",
"I c #ECECEB",
"U c #EEEDEB",
"Y c #EDEDEC",
"T c gray93",
"R c #EEEEED",
"E c #EDF2F6",
"W c #EEF3F6",
"Q c #F0EFED",
"! c #F0EFEE",
"~ c #F1F1F1",
"^ c #F3F1F0",
"/ c #F0F4F7",
"( c #F4F4F3",
") c #F5F4F3",
"_ c #F6F5F5",
"` c gray99",
"' c gray100",
"] c None",
/* pixels */
"]]]]]]]    ]]]]]]]]]]]]]",
"]]]]   sB4   ]]]]]]]    ",
"]]]]    nMs   ]]]]]     ",
"]]]      Kn   ]]]]  `%  ",
"]]      X_n   ]]]  `Np  ",
"]]  V.  v!s&   ]]  Sp   ",
"]]  tMML^sss   ]  Y     ",
"]]   rcMnZCs4    `      ",
"]]        L_b4  N       ",
"]]         !(n p       ]",
"]]]         Y p      ]]]",
"]]]]         p +O   ]]]]",
"]]]]]]]     p *=2&   ]]]",
"]]]]]]  1ze    7gs3   ]]",
"]]]]]  1Faj,    JYM4   ]",
"]]]]  0G9,k>     Y^n4   ",
"]]]  hH8-k1;      ~Uy@  ",
"]]  lW8>k1;        S*op ",
"]] e/q:k1;          gui ",
"]] xW6k1;      ]        ",
"]] <kDe;      ]]]       ",
"]]  <<,      ]]]]]      ",
"]]           ]]]]]]]]]]]",
"]]          ]]]]]]]]]]]]"
};
